<svg data-v-423bf9ae="" xmlns="http://www.w3.org/2000/svg" viewBox="0 0 329.0025420744749 60" class="font"><!----><!----><!----><g data-v-423bf9ae="" id="d7b2f8e8-f649-44d8-af6d-03a68ed40a65" fill="white" transform="matrix(5.11508929781524,0,0,5.11508929781524,-1.278765438107257,-27.877236174304358)"><path d="M2.62 8.18L0.52 8.18L0.52 8.18Q0.42 8.02 0.34 7.76L0.34 7.76L0.34 7.76Q0.25 7.49 0.25 7.20L0.25 7.20L0.25 7.20Q0.25 6.65 0.50 6.41L0.50 6.41L0.50 6.41Q0.74 6.17 1.13 6.17L1.13 6.17L7.24 6.17L7.24 6.17Q7.34 6.33 7.42 6.59L7.42 6.59L7.42 6.59Q7.50 6.86 7.50 7.15L7.50 7.15L7.50 7.15Q7.50 7.70 7.26 7.94L7.26 7.94L7.26 7.94Q7.01 8.18 6.62 8.18L6.62 8.18L5.07 8.18L5.07 14.64L5.07 14.64Q4.91 14.69 4.58 14.73L4.58 14.73L4.58 14.73Q4.26 14.77 3.93 14.77L3.93 14.77L3.93 14.77Q3.61 14.77 3.37 14.72L3.37 14.72L3.37 14.72Q3.12 14.67 2.95 14.55L2.95 14.55L2.95 14.55Q2.79 14.42 2.70 14.20L2.70 14.20L2.70 14.20Q2.62 13.97 2.62 13.61L2.62 13.61L2.62 8.18ZM11.27 14.92L11.27 14.92L11.27 14.92Q10.44 14.92 9.74 14.69L9.74 14.69L9.74 14.69Q9.03 14.46 8.50 14.00L8.50 14.00L8.50 14.00Q7.98 13.54 7.68 12.84L7.68 12.84L7.68 12.84Q7.38 12.14 7.38 11.20L7.38 11.20L7.38 11.20Q7.38 10.28 7.68 9.61L7.68 9.61L7.68 9.61Q7.98 8.95 8.47 8.52L8.47 8.52L8.47 8.52Q8.96 8.09 9.59 7.89L9.59 7.89L9.59 7.89Q10.22 7.69 10.88 7.69L10.88 7.69L10.88 7.69Q11.62 7.69 12.23 7.91L12.23 7.91L12.23 7.91Q12.84 8.13 13.28 8.53L13.28 8.53L13.28 8.53Q13.72 8.92 13.96 9.46L13.96 9.46L13.96 9.46Q14.21 10.01 14.21 10.65L14.21 10.65L14.21 10.65Q14.21 11.13 13.94 11.38L13.94 11.38L13.94 11.38Q13.68 11.63 13.20 11.70L13.20 11.70L9.74 12.22L9.74 12.22Q9.90 12.68 10.37 12.92L10.37 12.92L10.37 12.92Q10.85 13.15 11.47 13.15L11.47 13.15L11.47 13.15Q12.04 13.15 12.55 13.00L12.55 13.00L12.55 13.00Q13.06 12.85 13.38 12.66L13.38 12.66L13.38 12.66Q13.61 12.80 13.76 13.05L13.76 13.05L13.76 13.05Q13.92 13.30 13.92 13.58L13.92 13.58L13.92 13.58Q13.92 14.21 13.33 14.52L13.33 14.52L13.33 14.52Q12.88 14.76 12.32 14.84L12.32 14.84L12.32 14.84Q11.76 14.92 11.27 14.92ZM10.88 9.42L10.88 9.42L10.88 9.42Q10.54 9.42 10.30 9.53L10.30 9.53L10.30 9.53Q10.05 9.65 9.90 9.82L9.90 9.82L9.90 9.82Q9.74 10.00 9.67 10.21L9.67 10.21L9.67 10.21Q9.59 10.43 9.58 10.65L9.58 10.65L11.97 10.26L11.97 10.26Q11.93 9.98 11.66 9.70L11.66 9.70L11.66 9.70Q11.40 9.42 10.88 9.42ZM19.19 9.56L19.19 9.56L19.19 9.56Q18.84 9.56 18.53 9.67L18.53 9.67L18.53 9.67Q18.21 9.79 17.98 10.00L17.98 10.00L17.98 10.00Q17.75 10.22 17.61 10.54L17.61 10.54L17.61 10.54Q17.47 10.86 17.47 11.30L17.47 11.30L17.47 11.30Q17.47 12.17 17.97 12.60L17.97 12.60L17.97 12.60Q18.47 13.03 19.18 13.03L19.18 13.03L19.18 13.03Q19.60 13.03 19.91 12.94L19.91 12.94L19.91 12.94Q20.22 12.84 20.45 12.73L20.45 12.73L20.45 12.73Q20.73 12.92 20.87 13.15L20.87 13.15L20.87 13.15Q21.01 13.38 21.01 13.71L21.01 13.71L21.01 13.71Q21.01 14.28 20.47 14.60L20.47 14.60L20.47 14.60Q19.92 14.91 18.96 14.91L18.96 14.91L18.96 14.91Q18.07 14.91 17.36 14.65L17.36 14.65L17.36 14.65Q16.65 14.39 16.13 13.92L16.13 13.92L16.13 13.92Q15.62 13.45 15.34 12.80L15.34 12.80L15.34 12.80Q15.06 12.14 15.06 11.34L15.06 11.34L15.06 11.34Q15.06 10.42 15.36 9.72L15.36 9.72L15.36 9.72Q15.67 9.03 16.18 8.58L16.18 8.58L16.18 8.58Q16.70 8.13 17.38 7.91L17.38 7.91L17.38 7.91Q18.06 7.69 18.82 7.69L18.82 7.69L18.82 7.69Q19.82 7.69 20.37 8.05L20.37 8.05L20.37 8.05Q20.92 8.41 20.92 8.99L20.92 8.99L20.92 8.99Q20.92 9.25 20.79 9.49L20.79 9.49L20.79 9.49Q20.66 9.72 20.50 9.88L20.50 9.88L20.50 9.88Q20.26 9.77 19.92 9.67L19.92 9.67L19.92 9.67Q19.59 9.56 19.19 9.56ZM28.92 10.44L28.92 14.69L28.92 14.69Q28.78 14.73 28.48 14.77L28.48 14.77L28.48 14.77Q28.18 14.81 27.86 14.81L27.86 14.81L27.86 14.81Q27.55 14.81 27.31 14.77L27.31 14.77L27.31 14.77Q27.06 14.73 26.89 14.60L26.89 14.60L26.89 14.60Q26.73 14.48 26.63 14.26L26.63 14.26L26.63 14.26Q26.54 14.04 26.54 13.69L26.54 13.69L26.54 10.58L26.54 10.58Q26.54 10.01 26.26 9.78L26.26 9.78L26.26 9.78Q25.97 9.55 25.55 9.55L25.55 9.55L25.55 9.55Q25.27 9.55 25.02 9.62L25.02 9.62L25.02 9.62Q24.77 9.69 24.61 9.79L24.61 9.79L24.61 14.69L24.61 14.69Q24.47 14.73 24.17 14.77L24.17 14.77L24.17 14.77Q23.87 14.81 23.55 14.81L23.55 14.81L23.55 14.81Q23.24 14.81 22.99 14.77L22.99 14.77L22.99 14.77Q22.75 14.73 22.58 14.60L22.58 14.60L22.58 14.60Q22.41 14.48 22.32 14.26L22.32 14.26L22.32 14.26Q22.23 14.04 22.23 13.69L22.23 13.69L22.23 5.57L22.23 5.57Q22.39 5.54 22.69 5.50L22.69 5.50L22.69 5.50Q22.99 5.45 23.30 5.45L23.30 5.45L23.30 5.45Q23.60 5.45 23.85 5.49L23.85 5.49L23.85 5.49Q24.09 5.53 24.26 5.66L24.26 5.66L24.26 5.66Q24.43 5.78 24.52 6.00L24.52 6.00L24.52 6.00Q24.61 6.22 24.61 6.57L24.61 6.57L24.61 7.94L24.61 7.94Q24.79 7.87 25.16 7.78L25.16 7.78L25.16 7.78Q25.54 7.69 25.98 7.69L25.98 7.69L25.98 7.69Q27.37 7.69 28.15 8.38L28.15 8.38L28.15 8.38Q28.92 9.07 28.92 10.44L28.92 10.44ZM31.28 12.96L31.28 12.96L31.28 12.96Q31.12 12.61 30.95 12.18L30.95 12.18L30.95 12.18Q30.77 11.75 30.58 11.19L30.58 11.19L30.58 11.19Q30.39 10.63 30.19 9.91L30.19 9.91L30.19 9.91Q29.99 9.18 29.76 8.25L29.76 8.25L29.76 8.25Q29.96 8.05 30.29 7.90L30.29 7.90L30.29 7.90Q30.62 7.76 31.01 7.76L31.01 7.76L31.01 7.76Q31.50 7.76 31.82 7.96L31.82 7.96L31.82 7.96Q32.14 8.16 32.30 8.72L32.30 8.72L33.40 12.57L33.46 12.57L33.46 12.57Q33.63 12.10 33.79 11.54L33.79 11.54L33.79 11.54Q33.95 10.98 34.10 10.38L34.10 10.38L34.10 10.38Q34.26 9.79 34.39 9.19L34.39 9.19L34.39 9.19Q34.52 8.60 34.62 8.02L34.62 8.02L34.62 8.02Q35.13 7.76 35.73 7.76L35.73 7.76L35.73 7.76Q36.22 7.76 36.54 7.97L36.54 7.97L36.54 7.97Q36.86 8.18 36.86 8.69L36.86 8.69L36.86 8.69Q36.86 9.07 36.76 9.57L36.76 9.57L36.76 9.57Q36.67 10.07 36.50 10.63L36.50 10.63L36.50 10.63Q36.34 11.19 36.13 11.78L36.13 11.78L36.13 11.78Q35.91 12.38 35.67 12.95L35.67 12.95L35.67 12.95Q35.43 13.52 35.18 14.04L35.18 14.04L35.18 14.04Q34.93 14.55 34.69 14.95L34.69 14.95L34.69 14.95Q34.30 15.64 33.96 16.07L33.96 16.07L33.96 16.07Q33.63 16.51 33.32 16.75L33.32 16.75L33.32 16.75Q33.01 17.00 32.70 17.09L32.70 17.09L32.70 17.09Q32.40 17.18 32.06 17.18L32.06 17.18L32.06 17.18Q31.47 17.18 31.11 16.83L31.11 16.83L31.11 16.83Q30.74 16.48 30.67 15.92L30.67 15.92L30.67 15.92Q31.12 15.57 31.57 15.14L31.57 15.14L31.57 15.14Q32.02 14.71 32.38 14.27L32.38 14.27L32.38 14.27Q32.14 14.20 31.87 13.94L31.87 13.94L31.87 13.94Q31.60 13.68 31.28 12.96ZM40.54 8.01L40.54 12.88L40.54 12.88Q40.70 12.91 40.92 12.93L40.92 12.93L40.92 12.93Q41.15 12.95 41.34 12.95L41.34 12.95L41.34 12.95Q41.82 12.95 42.22 12.81L42.22 12.81L42.22 12.81Q42.62 12.67 42.90 12.38L42.90 12.38L42.90 12.38Q43.19 12.08 43.35 11.61L43.35 11.61L43.35 11.61Q43.51 11.14 43.51 10.49L43.51 10.49L43.51 10.49Q43.51 9.23 42.92 8.59L42.92 8.59L42.92 8.59Q42.34 7.95 41.36 7.95L41.36 7.95L41.36 7.95Q41.16 7.95 40.96 7.97L40.96 7.97L40.96 7.97Q40.75 7.98 40.54 8.01L40.54 8.01ZM41.33 14.92L41.33 14.92L41.33 14.92Q41.09 14.92 40.78 14.91L40.78 14.91L40.78 14.91Q40.47 14.90 40.15 14.85L40.15 14.85L40.15 14.85Q39.82 14.81 39.49 14.75L39.49 14.75L39.49 14.75Q39.16 14.69 38.88 14.57L38.88 14.57L38.88 14.57Q38.11 14.28 38.11 13.55L38.11 13.55L38.11 7.01L38.11 7.01Q38.11 6.72 38.27 6.56L38.27 6.56L38.27 6.56Q38.43 6.40 38.71 6.30L38.71 6.30L38.71 6.30Q39.31 6.10 39.98 6.04L39.98 6.04L39.98 6.04Q40.66 5.98 41.19 5.98L41.19 5.98L41.19 5.98Q42.28 5.98 43.17 6.24L43.17 6.24L43.17 6.24Q44.06 6.51 44.70 7.06L44.70 7.06L44.70 7.06Q45.33 7.62 45.68 8.46L45.68 8.46L45.68 8.46Q46.03 9.30 46.03 10.44L46.03 10.44L46.03 10.44Q46.03 11.56 45.70 12.40L45.70 12.40L45.70 12.40Q45.36 13.23 44.74 13.80L44.74 13.80L44.74 13.80Q44.11 14.36 43.25 14.64L43.25 14.64L43.25 14.64Q42.38 14.92 41.33 14.92ZM55.12 7.21L55.12 14.41L55.12 14.41Q54.92 14.60 54.55 14.71L54.55 14.71L54.55 14.71Q54.18 14.81 53.66 14.81L53.66 14.81L53.66 14.81Q53.14 14.81 52.68 14.66L52.68 14.66L52.68 14.66Q52.22 14.50 51.93 13.92L51.93 13.92L50.54 11.09L50.54 11.09Q50.33 10.65 50.16 10.27L50.16 10.27L50.16 10.27Q49.99 9.88 49.80 9.38L49.80 9.38L49.71 9.39L49.71 9.39Q49.77 10.15 49.78 10.93L49.78 10.93L49.78 10.93Q49.78 11.72 49.78 12.47L49.78 12.47L49.78 14.64L49.78 14.64Q49.63 14.69 49.31 14.73L49.31 14.73L49.31 14.73Q49 14.77 48.69 14.77L48.69 14.77L48.69 14.77Q48.38 14.77 48.15 14.73L48.15 14.73L48.15 14.73Q47.91 14.69 47.75 14.56L47.75 14.56L47.75 14.56Q47.60 14.43 47.52 14.22L47.52 14.22L47.52 14.22Q47.43 14.00 47.43 13.65L47.43 13.65L47.43 6.65L47.43 6.65Q47.63 6.37 48.03 6.23L48.03 6.23L48.03 6.23Q48.44 6.09 48.90 6.09L48.90 6.09L48.90 6.09Q49.42 6.09 49.89 6.25L49.89 6.25L49.89 6.25Q50.36 6.41 50.64 6.99L50.64 6.99L52.04 9.81L52.04 9.81Q52.25 10.25 52.42 10.63L52.42 10.63L52.42 10.63Q52.58 11.02 52.78 11.52L52.78 11.52L52.85 11.51L52.85 11.51Q52.79 10.75 52.78 10.00L52.78 10.00L52.78 10.00Q52.77 9.24 52.77 8.48L52.77 8.48L52.77 6.22L52.77 6.22Q52.92 6.17 53.23 6.13L53.23 6.13L53.23 6.13Q53.55 6.09 53.86 6.09L53.86 6.09L53.86 6.09Q54.47 6.09 54.80 6.31L54.80 6.31L54.80 6.31Q55.12 6.52 55.12 7.21L55.12 7.21ZM58.74 6.47L58.74 6.47L58.74 6.47Q58.98 6.33 59.46 6.20L59.46 6.20L59.46 6.20Q59.95 6.08 60.44 6.08L60.44 6.08L60.44 6.08Q61.14 6.08 61.68 6.28L61.68 6.28L61.68 6.28Q62.22 6.48 62.37 6.92L62.37 6.92L62.37 6.92Q62.62 7.64 62.92 8.61L62.92 8.61L62.92 8.61Q63.21 9.58 63.50 10.61L63.50 10.61L63.50 10.61Q63.80 11.63 64.08 12.64L64.08 12.64L64.08 12.64Q64.36 13.64 64.57 14.41L64.57 14.41L64.57 14.41Q64.40 14.60 64.06 14.72L64.06 14.72L64.06 14.72Q63.73 14.84 63.27 14.84L63.27 14.84L63.27 14.84Q62.93 14.84 62.70 14.78L62.70 14.78L62.70 14.78Q62.47 14.73 62.32 14.62L62.32 14.62L62.32 14.62Q62.17 14.50 62.08 14.32L62.08 14.32L62.08 14.32Q61.99 14.14 61.92 13.90L61.92 13.90L61.67 12.94L59.14 12.94L59.14 12.94Q59.02 13.36 58.91 13.80L58.91 13.80L58.91 13.80Q58.80 14.25 58.69 14.67L58.69 14.67L58.69 14.67Q58.49 14.74 58.27 14.79L58.27 14.79L58.27 14.79Q58.06 14.84 57.75 14.84L57.75 14.84L57.75 14.84Q57.04 14.84 56.69 14.60L56.69 14.60L56.69 14.60Q56.35 14.35 56.35 13.92L56.35 13.92L56.35 13.92Q56.35 13.72 56.41 13.52L56.41 13.52L56.41 13.52Q56.46 13.33 56.53 13.06L56.53 13.06L56.53 13.06Q56.63 12.68 56.80 12.12L56.80 12.12L56.80 12.12Q56.98 11.56 57.19 10.91L57.19 10.91L57.19 10.91Q57.40 10.26 57.64 9.58L57.64 9.58L57.64 9.58Q57.88 8.89 58.09 8.28L58.09 8.28L58.09 8.28Q58.30 7.67 58.47 7.20L58.47 7.20L58.47 7.20Q58.65 6.72 58.74 6.47ZM60.51 8.27L60.42 8.27L60.42 8.27Q60.23 8.86 59.98 9.58L59.98 9.58L59.98 9.58Q59.74 10.30 59.54 11.05L59.54 11.05L61.28 11.05L61.28 11.05Q61.08 10.29 60.88 9.57L60.88 9.57L60.88 9.57Q60.68 8.85 60.51 8.27L60.51 8.27Z"></path></g><!----><!----></svg>